<mxfile host="app.diagrams.net" modified="2021-11-30T03:41:20.665Z" agent="5.0 (Macintosh; Intel Mac OS X 10_15_7) AppleWebKit/537.36 (KHTML, like Gecko) Chrome/96.0.4664.55 Safari/537.36" etag="ltSVf_gCRtUUldB1sH16" version="15.7.3" type="github">
  <diagram id="qBd_tLGPg-DSYs_yWLyH" name="Page-1">
    <mxGraphModel dx="946" dy="589" grid="1" gridSize="10" guides="1" tooltips="1" connect="1" arrows="1" fold="1" page="1" pageScale="1" pageWidth="850" pageHeight="1100" math="1" shadow="0">
      <root>
        <mxCell id="0" />
        <mxCell id="1" parent="0" />
        <mxCell id="63GNxuutIX2Jem26zwdh-15" style="edgeStyle=orthogonalEdgeStyle;rounded=0;orthogonalLoop=1;jettySize=auto;html=1;entryX=-0.037;entryY=0.175;entryDx=0;entryDy=0;entryPerimeter=0;" edge="1" parent="1" source="63GNxuutIX2Jem26zwdh-1" target="63GNxuutIX2Jem26zwdh-2">
          <mxGeometry relative="1" as="geometry" />
        </mxCell>
        <mxCell id="63GNxuutIX2Jem26zwdh-1" value="Zaki&#39;s Crop Model" style="rounded=0;whiteSpace=wrap;html=1;" vertex="1" parent="1">
          <mxGeometry x="220" y="180" width="120" height="60" as="geometry" />
        </mxCell>
        <mxCell id="63GNxuutIX2Jem26zwdh-39" style="edgeStyle=orthogonalEdgeStyle;rounded=0;orthogonalLoop=1;jettySize=auto;html=1;" edge="1" parent="1" source="63GNxuutIX2Jem26zwdh-2">
          <mxGeometry relative="1" as="geometry">
            <mxPoint x="590" y="210" as="targetPoint" />
          </mxGeometry>
        </mxCell>
        <mxCell id="63GNxuutIX2Jem26zwdh-2" value="Kalman Filter" style="whiteSpace=wrap;html=1;aspect=fixed;" vertex="1" parent="1">
          <mxGeometry x="460" y="170" width="80" height="80" as="geometry" />
        </mxCell>
        <mxCell id="63GNxuutIX2Jem26zwdh-6" value="" style="endArrow=classic;html=1;rounded=0;" edge="1" parent="1" target="63GNxuutIX2Jem26zwdh-7">
          <mxGeometry width="50" height="50" relative="1" as="geometry">
            <mxPoint x="110" y="209.5" as="sourcePoint" />
            <mxPoint x="170" y="209.5" as="targetPoint" />
            <Array as="points">
              <mxPoint x="140" y="209.5" />
            </Array>
          </mxGeometry>
        </mxCell>
        <mxCell id="63GNxuutIX2Jem26zwdh-8" value="" style="edgeStyle=orthogonalEdgeStyle;rounded=0;orthogonalLoop=1;jettySize=auto;html=1;" edge="1" parent="1" source="63GNxuutIX2Jem26zwdh-7" target="63GNxuutIX2Jem26zwdh-1">
          <mxGeometry relative="1" as="geometry" />
        </mxCell>
        <mxCell id="63GNxuutIX2Jem26zwdh-7" value="" style="shape=orEllipse;perimeter=ellipsePerimeter;whiteSpace=wrap;html=1;backgroundOutline=1;" vertex="1" parent="1">
          <mxGeometry x="170" y="199.75" width="20" height="20.5" as="geometry" />
        </mxCell>
        <mxCell id="63GNxuutIX2Jem26zwdh-9" value="" style="endArrow=classic;html=1;rounded=0;entryX=0.5;entryY=1;entryDx=0;entryDy=0;" edge="1" parent="1" target="63GNxuutIX2Jem26zwdh-7">
          <mxGeometry width="50" height="50" relative="1" as="geometry">
            <mxPoint x="110" y="250" as="sourcePoint" />
            <mxPoint x="170" y="250" as="targetPoint" />
            <Array as="points">
              <mxPoint x="180" y="250" />
            </Array>
          </mxGeometry>
        </mxCell>
        <mxCell id="63GNxuutIX2Jem26zwdh-10" value="X_input (Input state variables)" style="text;html=1;strokeColor=none;fillColor=none;align=center;verticalAlign=middle;whiteSpace=wrap;rounded=0;" vertex="1" parent="1">
          <mxGeometry x="20" y="195" width="90" height="30" as="geometry" />
        </mxCell>
        <mxCell id="63GNxuutIX2Jem26zwdh-11" value="W (process noise)" style="text;html=1;strokeColor=none;fillColor=none;align=center;verticalAlign=middle;whiteSpace=wrap;rounded=0;" vertex="1" parent="1">
          <mxGeometry x="50" y="225" width="60" height="50" as="geometry" />
        </mxCell>
        <mxCell id="63GNxuutIX2Jem26zwdh-28" style="edgeStyle=orthogonalEdgeStyle;rounded=0;orthogonalLoop=1;jettySize=auto;html=1;entryX=0;entryY=0.75;entryDx=0;entryDy=0;" edge="1" parent="1" source="63GNxuutIX2Jem26zwdh-16" target="63GNxuutIX2Jem26zwdh-2">
          <mxGeometry relative="1" as="geometry" />
        </mxCell>
        <mxCell id="63GNxuutIX2Jem26zwdh-16" value="" style="shape=orEllipse;perimeter=ellipsePerimeter;whiteSpace=wrap;html=1;backgroundOutline=1;" vertex="1" parent="1">
          <mxGeometry x="390" y="240" width="20" height="20.5" as="geometry" />
        </mxCell>
        <mxCell id="63GNxuutIX2Jem26zwdh-23" style="edgeStyle=orthogonalEdgeStyle;rounded=0;orthogonalLoop=1;jettySize=auto;html=1;entryX=0.5;entryY=1;entryDx=0;entryDy=0;" edge="1" parent="1" source="63GNxuutIX2Jem26zwdh-22" target="63GNxuutIX2Jem26zwdh-16">
          <mxGeometry relative="1" as="geometry" />
        </mxCell>
        <mxCell id="63GNxuutIX2Jem26zwdh-22" value="Sensor Measurement" style="text;html=1;strokeColor=none;fillColor=none;align=center;verticalAlign=middle;whiteSpace=wrap;rounded=0;" vertex="1" parent="1">
          <mxGeometry x="260" y="280" width="90" height="50" as="geometry" />
        </mxCell>
        <mxCell id="63GNxuutIX2Jem26zwdh-25" style="edgeStyle=orthogonalEdgeStyle;rounded=0;orthogonalLoop=1;jettySize=auto;html=1;entryX=0;entryY=0.5;entryDx=0;entryDy=0;" edge="1" parent="1" source="63GNxuutIX2Jem26zwdh-24" target="63GNxuutIX2Jem26zwdh-16">
          <mxGeometry relative="1" as="geometry" />
        </mxCell>
        <mxCell id="63GNxuutIX2Jem26zwdh-24" value="v (sensor noise)" style="text;html=1;strokeColor=none;fillColor=none;align=center;verticalAlign=middle;whiteSpace=wrap;rounded=0;" vertex="1" parent="1">
          <mxGeometry x="260" y="240" width="90" height="50" as="geometry" />
        </mxCell>
        <mxCell id="63GNxuutIX2Jem26zwdh-33" value="$$\hat{X}$$&lt;br&gt;" style="text;html=1;strokeColor=none;fillColor=none;align=center;verticalAlign=middle;whiteSpace=wrap;rounded=0;" vertex="1" parent="1">
          <mxGeometry x="345" y="140" width="25" height="30" as="geometry" />
        </mxCell>
        <mxCell id="63GNxuutIX2Jem26zwdh-37" value="(estimated state variables)" style="text;html=1;strokeColor=none;fillColor=none;align=center;verticalAlign=middle;whiteSpace=wrap;rounded=0;" vertex="1" parent="1">
          <mxGeometry x="370" y="130" width="100" height="50" as="geometry" />
        </mxCell>
        <mxCell id="63GNxuutIX2Jem26zwdh-38" value="X_measured (measured state variables)" style="text;html=1;strokeColor=none;fillColor=none;align=center;verticalAlign=middle;whiteSpace=wrap;rounded=0;" vertex="1" parent="1">
          <mxGeometry x="260" y="321" width="90" height="50" as="geometry" />
        </mxCell>
        <mxCell id="63GNxuutIX2Jem26zwdh-40" value="$$\hat{Y}$$" style="text;html=1;strokeColor=none;fillColor=none;align=center;verticalAlign=middle;whiteSpace=wrap;rounded=0;" vertex="1" parent="1">
          <mxGeometry x="600" y="195" width="25" height="30" as="geometry" />
        </mxCell>
        <mxCell id="63GNxuutIX2Jem26zwdh-41" value="Corrected state variables" style="text;html=1;strokeColor=none;fillColor=none;align=center;verticalAlign=middle;whiteSpace=wrap;rounded=0;" vertex="1" parent="1">
          <mxGeometry x="625" y="190" width="100" height="50" as="geometry" />
        </mxCell>
      </root>
    </mxGraphModel>
  </diagram>
</mxfile>
